<?xml version="1.0" encoding="utf-8"?>
<!-- Generator: Adobe Illustrator 25.2.3, SVG Export Plug-In . SVG Version: 6.00 Build 0)  -->
<svg version="1.1" id="图层_1" xmlns="http://www.w3.org/2000/svg" xmlns:xlink="http://www.w3.org/1999/xlink" x="0px" y="0px"
	 viewBox="0 0 360 94" style="enable-background:new 0 0 360 94;" xml:space="preserve">
<style type="text/css">
	.st0{fill:#FFFFFF;}
</style>
<g>
	<path class="st0" d="M30.6,31.5H16.5v-7h35.2v7H37.6v42.2h-7V31.5z"/>
	<path class="st0" d="M93.9,24.4v7H65.7v14.1h21.1v7H65.7v14.1h28.1v7H58.7V24.4H93.9z"/>
	<path class="st0" d="M111.4,52.6h-3.5v21.1h-7V24.4H129V28h3.5v3.5h3.5v14.1h-3.5v3.5H129v3.5h-7v3.5h3.5v3.5h3.5v3.5h3.5v3.5h3.5
		v7h-7v-3.5h-3.5v-3.5H122v-3.5h-3.5v-3.5H115v-3.5h-3.5V52.6z M107.9,31.5v14.1h17.6V42h3.5v-7h-3.5v-3.5H107.9z"/>
	<path class="st0" d="M150.1,73.7h-7V24.4h7v7h3.5V35h3.5v3.5h7V35h3.5v-3.5h3.5v-7h7v49.2h-7V42h-3.5v3.5h-3.5v7h-7v-7h-3.5V42
		h-3.5V73.7z"/>
	<path class="st0" d="M192.3,73.7v-7h7V31.5h-7v-7h21.1v7h-7v35.2h7v7H192.3z"/>
	<path class="st0" d="M234.5,45.5v28.1h-7V24.4h7V35h3.5v3.5h3.5V42h3.5v3.5h3.5v3.5h3.5v3.5h3.5V24.4h7v49.2h-7V63.1h-3.5v-3.5
		h-3.5v-3.5H245v-3.5h-3.5v-3.5H238v-3.5H234.5z"/>
	<path class="st0" d="M276.7,73.7h-7V38.5h3.5V35h3.5v-3.5h3.5V28h3.5v-3.5h7V28h3.5v3.5h3.5V35h3.5v3.5h3.5v35.2h-7V59.6h-21.1
		V73.7z M276.7,52.6h21.1V42h-3.5v-3.5h-3.5V35h-7v3.5h-3.5V42h-3.5V52.6z"/>
	<path class="st0" d="M311.8,73.7V24.4h7v42.2H347v7H311.8z"/>
</g>
</svg>
