<?xml version="1.0" encoding="utf-8"?>
<!-- Generator: Adobe Illustrator 25.2.3, SVG Export Plug-In . SVG Version: 6.00 Build 0)  -->
<svg version="1.1" id="图层_1" xmlns="http://www.w3.org/2000/svg" xmlns:xlink="http://www.w3.org/1999/xlink" x="0px" y="0px"
	 viewBox="0 0 360 94" style="enable-background:new 0 0 360 94;" xml:space="preserve">
<g>
	<path d="M55.9,16h8.4v9.8h18V16h8.4v26.8h-8.4V32.2h-18v10.5h-8.4V16z"/>
	<path d="M106.1,32.4L91.8,16h10.4l8.3,9.9l8.5-9.9h9.5l-13.9,16.4v10.4h-8.4V32.4z"/>
	<path d="M137.8,33.9v8.9h-8.4V16h20.1c9.6,0,12.5,3.8,12.5,8.7v0.4c0,4.8-2.9,8.8-12.5,8.8H137.8z M137.8,27.8h11.6
		c2.6,0,3.9-1,3.9-2.8v-0.1c0-1.8-1.2-2.8-3.9-2.8h-11.6V27.8z"/>
	<path d="M192.8,16v6.1h-19.9v4h19.5v6.1h-19.5v4.4h20.3v6.2h-28.6V16H192.8z"/>
	<path d="M204.8,42.8h-8.4V16H218c8.9,0,11.6,3.1,11.6,6.9v0.4c0,3.8-3.2,5.3-5,5.9c2.7,0.7,5.1,2.7,5.1,6.2v3.9
		c0,2.2,0.3,2.8,0.5,3.3v0.2h-8.5c-0.3-0.3-0.4-0.8-0.4-1.7V38c0-3.3-1.4-4.7-5.6-4.7h-10.9V42.8z M204.8,27.3h12.7
		c2.4,0,3.4-1.2,3.4-2.6v0c0-1.4-0.9-2.6-3.4-2.6h-12.7V27.3z"/>
	<path d="M264.2,23.1c0,3.5-3.3,5.3-5.5,5.5c2.8,0.5,6.2,2.4,6.2,6v0.5c0,3-1.7,8.2-15.9,8.2h-1.6c-14.5,0-15.9-5.2-15.9-8.2v-0.5
		c0-3.5,3.5-5.4,6.2-6c-2.3-0.4-5.5-2.1-5.5-5.5v-0.4c0-2.5,1-7.2,15.3-7.2h1.6c14.2,0,15.2,4.8,15.2,7.2V23.1z M256.3,34.5
		c0-1.3-0.6-2.7-8.1-2.7c-7.5,0-8,1.4-8,2.7v0.1c0,1.2,0.7,2.8,8,2.8c7.4,0,8.1-1.7,8.1-2.8V34.5z M255.6,23.4c0-1-0.5-2.5-7.3-2.5
		c-6.9,0-7.3,1.5-7.3,2.5v0.1c0,1,0.5,2.6,7.3,2.6c6.8,0,7.3-1.5,7.3-2.6V23.4z"/>
	<path d="M298.9,23.1c0,3.5-3.3,5.3-5.5,5.5c2.8,0.5,6.2,2.4,6.2,6v0.5c0,3-1.7,8.2-15.9,8.2h-1.6c-14.5,0-15.9-5.2-15.9-8.2v-0.5
		c0-3.5,3.5-5.4,6.2-6c-2.3-0.4-5.5-2.1-5.5-5.5v-0.4c0-2.5,1-7.2,15.3-7.2h1.6c14.2,0,15.2,4.8,15.2,7.2V23.1z M290.9,34.5
		c0-1.3-0.6-2.7-8.1-2.7c-7.5,0-8,1.4-8,2.7v0.1c0,1.2,0.7,2.8,8,2.8c7.4,0,8.1-1.7,8.1-2.8V34.5z M290.2,23.4c0-1-0.5-2.5-7.3-2.5
		c-6.9,0-7.3,1.5-7.3,2.5v0.1c0,1,0.5,2.6,7.3,2.6c6.8,0,7.3-1.5,7.3-2.6V23.4z"/>
</g>
<g>
	<path d="M62.8,58.5h-7V55h17.6v3.5h-7v21.1h-3.5V58.5z"/>
	<path d="M94.4,55v3.5H80.4v7h10.5V69H80.4v7h14.1v3.5H76.9V55H94.4z"/>
	<path d="M103.2,69h-1.8v10.5h-3.5V55H112v1.8h1.8v1.8h1.8v7h-1.8v1.8H112V69h-3.5v1.8h1.8v1.8h1.8v1.8h1.8v1.8h1.8v3.5H112v-1.8
		h-1.8v-1.8h-1.8v-1.8h-1.8v-1.8H105v-1.8h-1.8V69z M101.5,58.5v7h8.8v-1.8h1.8v-3.5h-1.8v-1.8H101.5z"/>
	<path d="M122.6,79.6H119V55h3.5v3.5h1.8v1.8h1.8V62h3.5v-1.8h1.8v-1.8h1.8V55h3.5v24.6h-3.5V63.8h-1.8v1.8h-1.8V69h-3.5v-3.5h-1.8
		v-1.8h-1.8V79.6z"/>
	<path d="M143.6,79.6v-3.5h3.5V58.5h-3.5V55h10.5v3.5h-3.5v17.6h3.5v3.5H143.6z"/>
	<path d="M164.7,65.5v14.1h-3.5V55h3.5v5.3h1.8V62h1.8v1.8h1.8v1.8h1.8v1.8h1.8V69h1.8V55h3.5v24.6h-3.5v-5.3h-1.8v-1.8h-1.8v-1.8
		H170V69h-1.8v-1.8h-1.8v-1.8H164.7z"/>
	<path d="M185.8,79.6h-3.5V62h1.8v-1.8h1.8v-1.8h1.8v-1.8h1.8V55h3.5v1.8h1.8v1.8h1.8v1.8h1.8V62h1.8v17.6h-3.5v-7h-10.5V79.6z
		 M185.8,69h10.5v-5.3h-1.8V62h-1.8v-1.8h-3.5V62h-1.8v1.8h-1.8V69z"/>
	<path d="M203.4,79.6V55h3.5v21.1H221v3.5H203.4z"/>
</g>
</svg>
